<svg id="Layer_1" data-name="Layer 1" xmlns="http://www.w3.org/2000/svg" xmlns:xlink="http://www.w3.org/1999/xlink" viewBox="0 0 1500 1000"><defs><style>.cls-1,.cls-5{fill:none;}.cls-2{clip-path:url(#clip-path);}.cls-3{fill:#fff;}.cls-4{fill:#176734;}.cls-5{stroke:#000;stroke-miterlimit:10;}.cls-6{fill:#b92025;}</style><clipPath id="clip-path"><rect class="cls-1" x="-0.16" y="0.18" width="1500" height="1000"/></clipPath></defs><title>Flag-of-kenya</title><g class="cls-2"><rect class="cls-3" x="-0.16" y="0.18" width="1500" height="1000"/><rect x="-0.16" y="0.18" width="1500" height="300"/><rect class="cls-4" x="-0.16" y="700.18" width="1500" height="300"/><g class="cls-2"><path d="M571.22,797.05l10.83,6.26,292-505.68c17.07-4.58,26.44-20.82,35.82-37.06,6.25-10.83,31.25-54.12,42.08-110.39-43.31,37.51-68.3,80.81-74.55,91.64-9.38,16.24-18.75,32.48-14.18,49.55Z"/><path class="cls-5" d="M571.22,797.05l10.83,6.26,292-505.68c17.07-4.58,26.44-20.82,35.82-37.06,6.25-10.83,31.25-54.12,42.08-110.39-43.31,37.51-68.3,80.81-74.55,91.64-9.38,16.24-18.75,32.48-14.18,49.55Z"/><path class="cls-3" d="M571.22,797.05l10.83,6.26,292-505.68c17.07-4.58,26.44-20.82,35.82-37.06,6.25-10.83,31.25-54.12,42.08-110.39-43.31,37.51-68.3,80.81-74.55,91.64-9.38,16.24-18.75,32.48-14.18,49.55Z"/><path d="M928.45,797.05l-10.81,6.26-292-505.68c-17.07-4.58-26.44-20.82-35.82-37.06-6.25-10.83-31.25-54.12-42.08-110.39C591,187.69,616.05,231,622.3,241.82c9.37,16.24,18.75,32.48,14.17,49.55Z"/><path class="cls-5" d="M928.45,797.05l-10.81,6.26-292-505.68c-17.07-4.58-26.44-20.82-35.82-37.06-6.25-10.83-31.25-54.12-42.08-110.39C591,187.69,616.05,231,622.3,241.82c9.37,16.24,18.75,32.48,14.17,49.55Z"/><path class="cls-3" d="M928.45,797.05l-10.81,6.26-292-505.68c-17.07-4.58-26.44-20.82-35.82-37.06-6.25-10.83-31.25-54.12-42.08-110.39C591,187.69,616.05,231,622.3,241.82c9.37,16.24,18.75,32.48,14.17,49.55Z"/><path class="cls-6" d="M-.16,350.18v300H631.09c18.75,50,81.25,150,118.75,150s100-100,118.75-150h631.25v-300H868.59c-18.75-50-81.25-150-118.75-150s-100,100-118.75,150Z"/><path d="M868.59,650.18c18.75-50,31.25-100,31.25-150s-12.5-100-31.25-150c-18.75,50-31.25,100-31.25,150s12.5,100,31.25,150"/><path d="M631.09,650.18c-18.75-50-31.25-100-31.25-150s12.5-100,31.25-150c18.75,50,31.25,100,31.25,150s-12.5,100-31.25,150"/><path class="cls-3" d="M749.84,462.68c13.8,0,25,16.79,25,37.5s-11.2,37.5-25,37.5-25-16.79-25-37.5,11.2-37.5,25-37.5"/><path class="cls-3" d="M756.09,536.75s25,50,25,131.24-25,131.25-25,131.25Z"/><path class="cls-3" d="M743.59,463.62s-25-50-25-131.25,25-131.26,25-131.26Z"/><path class="cls-3" d="M743.59,536.75s-25,50-25,131.24,25,131.25,25,131.25Z"/><path class="cls-3" d="M756.09,463.62s25-50,25-131.25-25-131.26-25-131.26Z"/></g></g></svg>