<svg id="Layer_1" data-name="Layer 1" xmlns="http://www.w3.org/2000/svg" xmlns:xlink="http://www.w3.org/1999/xlink" viewBox="0 0 1500 1000"><defs><style>.cls-1{fill:none;}.cls-2{clip-path:url(#clip-path);}.cls-3{fill:#fadb00;}.cls-4{fill:#d81f26;}.cls-5{fill:#fff;}.cls-6{fill:#9ba49a;}</style><clipPath id="clip-path"><rect class="cls-1" width="1500" height="1000"/></clipPath></defs><g class="cls-2"><rect x="-90.98" y="-1.58" width="1681.95" height="1003.17"/><rect class="cls-3" x="-90.98" y="165.61" width="1681.95" height="167.19"/><rect class="cls-4" x="-90.98" y="332.81" width="1681.95" height="167.19"/><rect class="cls-3" x="-90.98" y="667.19" width="1681.95" height="167.19"/><rect class="cls-4" x="-90.98" y="834.39" width="1681.95" height="167.19"/><circle class="cls-5" cx="750" cy="500" r="255.74"/><path class="cls-4" d="M704.93,304.13l-16.59-30.55c6.4-6.4,17.17-11.35,34.33-11.35,0,1.17-1.74,33.47-1.74,33.47Z"/><path d="M704.93,304.13l1.2-.65-16.59-30.55-1.2.65,1,1c6.11-6.1,16.46-10.94,33.37-10.95v-1.37h-1.36c0,.06,0,.73-.08,1.71-.16,3.47-.58,11.4-1,18.45s-.71,13.22-.71,13.23l1.37.08-.64-1.21-16,8.43.64,1.21,1.2-.65-1.2.65.63,1.21,16.69-8.8,0-.77s.44-8.07.88-16.3c.21-4.11.43-8.25.6-11.45.08-1.59.15-2.95.19-3.95s.08-1.6.08-1.84v-1.36h-1.37c-17.42,0-28.6,5-35.3,11.74l-.72.73L704.37,306l1.19-.63Z"/><path class="cls-3" d="M720.93,296l2.33-33.76s34.33-2,53,20.37c.29-.29-18.34,26.19-18.34,26.19Z"/><path d="M720.93,296l1.36.09,2.33-33.75-1.36-.1.08,1.37.55,0c.36,0,.91,0,1.62,0a84.27,84.27,0,0,1,22,3.05c9.54,2.69,20,7.68,27.6,16.88l1,1.16,1.06-1.08-1-.94.86,1,.1-.1-1-.94.86,1-.87-1.06.69,1.18.18-.12-.87-1.06.69,1.18-.69-1.18V284a1.3,1.3,0,0,0,.69-.19l-.69-1.18v0l-.46,1.29.46.08V282.6l-.46,1.29.46-1.29-1.22.63a1.44,1.44,0,0,0,.76.66l.46-1.29-1.22.63,1.22-.63h-1.37a1.34,1.34,0,0,0,.15.63l1.22-.63h0l-1.3-.42a1.32,1.32,0,0,0-.07.42h1.37l-1.3-.42,1.25.4-1.15-.65-.1.25,1.25.4-1.15-.65.7.4-.68-.42,0,0,.7.4-.68-.42s-.39.58-.93,1.35c-1.89,2.73-6.23,8.92-10.1,14.42l-5.07,7.23L756.77,308l1.11.79.45-1.29-37-12.8-.45,1.29,1.36.09-1.36-.09-.45,1.29,37.93,13.14.59-.84s4.59-6.52,9.17-13.06l6.3-9,2.09-3,.58-.86.17-.24.06-.1,0-.08.05-.1,0-.14a1.32,1.32,0,0,0,.07-.42,1.4,1.4,0,0,0-.35-.91l-.57-.38-.45-.08a1.26,1.26,0,0,0-.69.19,1,1,0,0,0-.29.23l1,1,1-.87c-8.13-9.77-19.09-15-29-17.76a87,87,0,0,0-22.79-3.15c-1.47,0-2.31.05-2.33.05l-1.21.07-2.48,36,1,.34Z"/><path class="cls-4" d="M758.47,308.5l16.87-26.19c11.35,11.93,16,20.37,17.75,33.17.29.29-26.77,6.69-26.77,6.4S758.76,308.79,758.47,308.5Z"/><path d="M758.47,308.5l1.15.74,16.87-26.19-1.15-.74-1,.94c5.63,5.92,9.55,10.92,12.26,16a46.51,46.51,0,0,1,5.13,16.45l.06.44.31.33,1-.95h-1.36a1.35,1.35,0,0,0,.38.95l1-.95h0l-1-.91a1.27,1.27,0,0,0-.35.91h1.35l-1-.91.92.83-.58-1.1-.34.27.92.83-.58-1.1h0c-.22.08-.85.27-1.7.49-3,.81-8.94,2.25-14.23,3.49-2.65.62-5.14,1.19-7,1.6-.93.21-1.72.38-2.29.49l-.68.13-.18,0h0l.06.72v-.72h-.06l.06.72v.52l.29-1.21-.29,0v1.24l.29-1.21-.31,1.31.78-1.09-.47-.22-.31,1.31.78-1.09-.79,1.1h1.36a1.37,1.37,0,0,0-.57-1.1l-.79,1.1h1.36a1.37,1.37,0,0,0-.08-.46l-.2-.45c-.54-1-2.39-4.21-4.18-7.23-.88-1.51-1.75-3-2.41-4.06-.33-.55-.62-1-.82-1.34l-.27-.42-.1-.15-.2-.24-1,1,1.15.74-1.15-.74-1,1,.81-.82-.91.7.1.12.81-.82-.91.7.15-.11-.16.1h0l.15-.11-.16.1c.05.06.24.37.5.79.9,1.47,2.72,4.53,4.3,7.23.8,1.36,1.53,2.63,2.06,3.57.27.47.49.85.63,1.12l.15.29,0,0,.41-.2-.43.17,0,0,.41-.2-.43.17,1.07-.41-1.1.31,0,.1,1.07-.41-1.1.31,1.27-.36H765l0,.36,1.27-.36H765a1.42,1.42,0,0,0,.58,1.12,1.39,1.39,0,0,0,.61.25h.22a4.29,4.29,0,0,0,.73-.09c2-.35,8.49-1.85,14.61-3.31,3-.73,6-1.45,8.16-2,1.09-.28,2-.52,2.64-.71l.79-.24.31-.12.25-.15.27-.24a1.32,1.32,0,0,0,.34-.9,1.41,1.41,0,0,0-.39-1l-1,1,1.36-.18A49.35,49.35,0,0,0,789,297.92c-2.88-5.35-7-10.54-12.69-16.55l-1.2-1.26-18.41,28.57.78.79Z"/><path d="M713.36,740.9s31.72-36.38,93.41-28.52C797.46,697.25,767.49,699,767.49,699s-9.32-70.71-2-74.2,38.12.29,38.12.29c4.07,0,11-11.06,5.53-18s-21.83-33.76-15.14-39S837,571,837,571L734.31,439.44S723.84,390,744.79,366.11c25.32-20.95,22.7-43.64,21.82-43.35-3.49-23-38.41-39.58-62-18.33-14,16.87-4.65,29.68-4.65,29.68S663.31,344,661.86,350.4s41.32-1.16,41.32-1.16l-4.08,29.39s-83.22,75.65-19.49,141.12c.58-.29,2-2.91,2-2.91s22.4,27.64,46,33.75c22.11,22.7,20.08,19.21,20.08,19.21s4.36,35.79.29,42.77c-5.53-1.74-62-3.78-70.42-.58-7.56,2.33-36.66.87-29.39,48.31,5.53-12.81,10.48-24.16,10.48-24.16s-.87,17.17,6.11,23.28c-1.16-18,6.69-30.26,6.69-30.26s1.46,19.79,5.82,22.7,4.37-32,28.52-29.1a272,272,0,0,0,41.61,2s8.15,68.37,5.53,74.78c-17.46-4.08-59.07,1.74-61.69,12.22,24.44-1.46,35.79,1.45,35.79,1.45S707.25,730.71,713.36,740.9Z"/><path d="M713.36,740.9l1,.9.07-.07c1.43-1.59,26.86-29.1,75.12-29.09a134.13,134.13,0,0,1,17,1.1l2.84.36-1.5-2.44c-4.1-6.62-11.64-10.06-19-11.94a78.67,78.67,0,0,0-18.61-2.15c-1.8,0-2.88.06-2.9.06l.08,1.37,1.35-.18s-.3-2.28-.75-6c-1.35-11.28-4.05-35.94-4.05-52.19a71.64,71.64,0,0,1,.6-10.51,13.84,13.84,0,0,1,.78-3.08,3.15,3.15,0,0,1,.41-.76L766,626a15.12,15.12,0,0,1,4.55-1,68.21,68.21,0,0,1,7.09-.32c5.65,0,12.1.44,17.12.88,2.51.22,4.66.44,6.18.61s2.42.27,2.42.27h.17a5.51,5.51,0,0,0,3.28-1.31,14.69,14.69,0,0,0,3.91-5,15.9,15.9,0,0,0,1.75-7,11,11,0,0,0-2.34-6.94,120.74,120.74,0,0,1-10-15.86,87.39,87.39,0,0,1-4.59-10,25.39,25.39,0,0,1-1.88-8.1,5.85,5.85,0,0,1,.3-2,2.33,2.33,0,0,1,.77-1.11,7.33,7.33,0,0,1,3-1.09,31.4,31.4,0,0,1,5.32-.38c6.37,0,14.8,1.16,21.59,2.32,3.41.58,6.4,1.16,8.55,1.59s3.43.73,3.43.73l3.73.83L735.39,438.6l-1.08.84,1.34-.28s0-.18-.11-.54a150.42,150.42,0,0,1-2.48-26.89c0-15.21,2.65-33.25,12.76-44.71l-1-.91.87,1.06c19.57-16.19,22.85-33.54,22.84-41a17.81,17.81,0,0,0-.19-2.76,5.62,5.62,0,0,0-.23-.92l-.26-.5-.36-.35a1.48,1.48,0,0,0-.83-.26l-.5.09.48,1.28,1.35-.21c-1.24-8.19-6.24-15.51-13.16-20.77a42,42,0,0,0-25.1-8.53,38.34,38.34,0,0,0-26,10.16l-.08.07-.06.07c-6.17,7.44-8,14.28-8,19.64a21.19,21.19,0,0,0,3.3,11.72l1.11-.8-.36-1.33s-9.2,2.49-18.61,5.78a118.59,118.59,0,0,0-13.19,5.37,29.46,29.46,0,0,0-4.74,2.85,6.31,6.31,0,0,0-2.55,3.32l-.07.61a2.65,2.65,0,0,0,1.15,2.15,7.85,7.85,0,0,0,3.49,1.19,34,34,0,0,0,4.91.29c12.28,0,33.37-3.75,33.41-3.76l-.24-1.34-1.36-.19-4.07,29.39,1.35.19-.92-1a165.69,165.69,0,0,0-22,25.85c-11,15.85-22,37.62-22,61.39,0,18.19,6.54,37.51,24.41,55.86l.7.71.89-.45a2.18,2.18,0,0,0,.63-.48,12.08,12.08,0,0,0,1.32-1.84c.38-.62.66-1.13.67-1.15l-1.19-.66-1.07.86a144.12,144.12,0,0,0,14.3,14.74c8.64,7.75,20.24,16.31,32.4,19.48l.34-1.33-1,1c8.46,8.69,13.4,13.54,16.28,16.25,1.45,1.35,2.38,2.17,3,2.67a7.75,7.75,0,0,0,.78.56l.36.19a1.55,1.55,0,0,0,.64.14,1.46,1.46,0,0,0,1.07-.48,1.44,1.44,0,0,0,.35-.94,1.65,1.65,0,0,0-.14-.64l-.1-.19-2.54.85s.13,1,.32,2.79c.57,5.25,1.7,17,1.7,26.49a70.86,70.86,0,0,1-.37,7.91,13.54,13.54,0,0,1-1.18,4.73l1.18.69.41-1.3a16.87,16.87,0,0,0-2.37-.46c-7.07-1-26.55-1.87-43.19-1.87-5.9,0-11.43.12-15.92.39-2.24.13-4.22.3-5.87.53a19,19,0,0,0-4,.85l.48,1.28-.4-1.31c-1.46.46-4.27.82-7.52,1.55-4.88,1.11-10.91,3.17-15.73,8.27s-8.27,13.19-8.26,25.9a94,94,0,0,0,1.17,14.1l.72,4.71,1.89-4.37c2.76-6.4,5.38-12.44,7.31-16.88s3.16-7.26,3.16-7.27l-1.25-.55-1.37-.07s0,.73,0,1.91a58,58,0,0,0,1,10.88c.88,4.31,2.43,8.77,5.61,11.59l2.48,2.17-.22-3.29c-.07-1.21-.11-2.4-.11-3.56a55,55,0,0,1,3.32-18.84,47.73,47.73,0,0,1,2.27-5.24c.31-.6.57-1.05.74-1.36l.2-.33.06-.1-1.15-.74-1.36.1s.37,5,1.29,10.39a56.54,56.54,0,0,0,1.84,7.86,19.87,19.87,0,0,0,1.35,3.2,6.57,6.57,0,0,0,1.94,2.28,2.29,2.29,0,0,0,1.27.41,2.35,2.35,0,0,0,1.63-.73,7.82,7.82,0,0,0,1.51-2.64c.75-1.89,1.51-4.44,2.51-7.27,1.49-4.23,3.52-9,6.6-12.65A16.22,16.22,0,0,1,703,624a20.06,20.06,0,0,1,2.62.17,299.57,299.57,0,0,0,35,2.17c4.37,0,6.85-.13,6.87-.13l-.07-1.36-1.36.16s.38,3.16.94,8.2c1.7,15.1,5.1,47.09,5.1,60.54,0,1.43,0,2.65-.12,3.58a7.24,7.24,0,0,1-.3,1.78l1.27.52.31-1.33a66.49,66.49,0,0,0-14.56-1.35,130.24,130.24,0,0,0-30.62,3.74,53.34,53.34,0,0,0-12,4.39,18.07,18.07,0,0,0-4,2.86,7.81,7.81,0,0,0-2.19,3.58l-.45,1.81,1.86-.12c4.86-.29,9.2-.4,13-.4a138.22,138.22,0,0,1,16.95.92c1.85.23,3.21.46,4.1.63.45.08.78.15,1,.2l.3.07.34-1.33-.91-1a76.4,76.4,0,0,0-7.57,8,47.43,47.43,0,0,0-5.26,7.74,18.94,18.94,0,0,0-2.48,8.54,9.8,9.8,0,0,0,1.37,5.12l1,1.61,1.23-1.41-1-.9,1.18-.71a7,7,0,0,1-1-3.71,16.33,16.33,0,0,1,2.16-7.27,52,52,0,0,1,7.63-10.35c1.28-1.4,2.44-2.55,3.27-3.35.41-.4.75-.71,1-.92l.34-.31,1.94-1.71-2.5-.64c-.11,0-7.49-1.91-23-1.91-3.88,0-8.28.12-13.19.41l.08,1.37,1.32.33a5.08,5.08,0,0,1,1.46-2.29,21.75,21.75,0,0,1,7.05-4.1c9.48-3.8,25-6.11,37.61-6.1a64,64,0,0,1,13.93,1.27l1.14.26.44-1.08a9,9,0,0,0,.49-2.58c.09-1,.13-2.33.13-3.81,0-9.2-1.52-26.42-3-41.4s-3-27.66-3-27.67l-.16-1.26-1.27.06-1.74.06c-1.14,0-2.83.06-5,.06A295.45,295.45,0,0,1,706,621.4a25.22,25.22,0,0,0-3-.18,18.7,18.7,0,0,0-13,4.95c-4.85,4.44-7.48,10.86-9.31,16.09-.91,2.62-1.62,5-2.25,6.55a9,9,0,0,1-.82,1.72l-.17.21.31.42v-.5l-.31.08.31.42v.09l.19-.56-.19,0v.59l.19-.56-.09.25.15-.22-.06,0-.09.25.15-.22a3.89,3.89,0,0,1-1.07-1.34,22.82,22.82,0,0,1-1.89-5.35,87.46,87.46,0,0,1-1.74-9.94c-.18-1.47-.31-2.73-.39-3.62s-.12-1.41-.12-1.41l-.31-4.08-2.21,3.44c-.08.13-7,10.94-7,27.35,0,1.22,0,2.47.13,3.74l1.36-.09.9-1c-2.4-2.07-3.93-6-4.73-10.07A55.09,55.09,0,0,1,660,638c0-.56,0-1,0-1.31s0-.46,0-.46l-2.62-.61s-4.94,11.35-10.47,24.15l1.25.55,1.35-.21a91.77,91.77,0,0,1-1.14-13.69c0-8.16,1.46-14.11,3.68-18.5a23.18,23.18,0,0,1,13.35-11.6,45.68,45.68,0,0,1,7.09-1.87c2.17-.42,4-.69,5.46-1.13h0l0,0a16.24,16.24,0,0,1,3.35-.7,185.51,185.51,0,0,1,21.43-.89c9.44,0,19.86.29,28.33.72,4.23.22,8,.47,10.87.73,1.44.13,2.67.26,3.62.39a13.81,13.81,0,0,1,1.92.36l1,.33.55-1a15.57,15.57,0,0,0,1.53-5.79,75.19,75.19,0,0,0,.4-8.23c0-12.93-2-29.58-2-29.61l-1.36.17-1.18.69.77-.45-.82.35,0,.1.77-.45-.82.35,1-.45h-1.13a1,1,0,0,0,.09.45l1-.45h.18l-1-.86a1.29,1.29,0,0,0-.33.86h1.31l-1-.86,1,.86v-1.32a1.33,1.33,0,0,0-1,.46l1,.86v-.21l.43-1a1,1,0,0,0-.43-.09v1.11l.43-1-.17.4.2-.39h0l-.17.4.2-.39a9.21,9.21,0,0,1-1-.82c-2-1.74-7-6.45-18.51-18.26l-.27-.27-.37-.1c-11.4-2.94-22.79-11.25-31.25-18.86-4.23-3.8-7.74-7.42-10.19-10.08-1.22-1.33-2.18-2.42-2.83-3.18l-.74-.87-.24-.3-1.28-1.57-1,1.77-.22.39c-.21.36-.54.91-.85,1.36l-.42.57-.11.12.13.13-.11-.15,0,0,.13.13-.11-.15.49.65-.36-.72-.13.07.49.65-.36-.72.61,1.22,1-1C663.17,500.88,657,482.39,657,464.85c0-22.9,10.72-44.24,21.52-59.83a172.91,172.91,0,0,1,14.84-18.56c2-2.2,3.71-3.91,4.88-5.07.59-.58,1-1,1.36-1.31l.47-.44.37-.34,4.4-31.74-1.85.33s-1.31.23-3.47.58c-6.47,1-20.61,3.14-29.46,3.13a24.93,24.93,0,0,1-5.57-.46,3.63,3.63,0,0,1-1.2-.47l-.07-.07h0l-.17.11h.2l0-.11-.17.11h.2v0a4.22,4.22,0,0,1,1.56-1.76,43,43,0,0,1,8.7-4.58c5.56-2.33,12.3-4.58,17.63-6.23,2.66-.82,5-1.5,6.63-2s2.62-.73,2.62-.73l1.92-.52-1.17-1.61v0a18.72,18.72,0,0,1-2.77-10.09c0-4.73,1.58-10.86,7.39-17.89l-1.06-.87.92,1A35.54,35.54,0,0,1,729.7,296a39.21,39.21,0,0,1,23.44,8c6.47,4.91,11,11.67,12.12,19l.25,1.67,1.58-.59-.46-1.24v1.32l.46-.08-.46-1.24v0l-.75,1.06a1.28,1.28,0,0,0,.75.24v-1.3l-.75,1.06.63-.88-1,.5a1.11,1.11,0,0,0,.35.38l.63-.88-1,.5.4-.2-.41.17v0l.4-.2-.41.17a6.05,6.05,0,0,1,.15.79,18.84,18.84,0,0,1,.09,1.92c0,6.73-2.94,23.23-21.84,38.88l-.09.07-.07.08c-10.85,12.4-13.42,31-13.43,46.52a148.84,148.84,0,0,0,2.65,28l.06.31L836,571.81,837,571l.3-1.33c-.05,0-20.86-4.69-34.17-4.7a34,34,0,0,0-5.8.42,9.69,9.69,0,0,0-4.24,1.63,5.08,5.08,0,0,0-1.65,2.33,8.49,8.49,0,0,0-.46,2.93,27.7,27.7,0,0,0,2,9c3.72,10,11.39,22.07,15,26.6a8.21,8.21,0,0,1,1.75,5.25,13.79,13.79,0,0,1-2.42,7.44,10.52,10.52,0,0,1-2.17,2.39,3,3,0,0,1-1.61.75v1.37l.16-1.36A257.47,257.47,0,0,0,777.68,622a69.61,69.61,0,0,0-7.39.33,17.62,17.62,0,0,0-5.43,1.28,4.31,4.31,0,0,0-2,2.39,22.2,22.2,0,0,0-1.24,6c-.24,2.47-.35,5.39-.35,8.62,0,22,4.83,58.55,4.83,58.58l.17,1.26,1.27-.07.71,0c.47,0,1.16,0,2,0a76.58,76.58,0,0,1,17.94,2.07c7,1.78,13.89,5.06,17.35,10.73l1.17-.72.17-1.36a137.9,137.9,0,0,0-17.36-1.12c-51,0-77.12,30-77.25,30.1l1,.9,1.18-.71Z"/><path class="cls-6" d="M723.17,367.78s-60.55,66.75-34.43,117.82c1.39-7.12.79-11.6,1.66-11.31-1.46-.87,7.51,6.15,6.83,4.78.19-3.69-2.73-11.6-2.73-11.6l8.19,2-4.78-8.88L709.52,462s-4.1-10.92-2.73-10.92,9.55.68,9.55.68C699.12,420.86,715.37,395.19,723.17,367.78Z"/><path class="cls-6" d="M723.17,367.78l-1-.92a204.68,204.68,0,0,0-20.64,28.35c-10.31,17-20.67,39.53-20.69,62.18a62.6,62.6,0,0,0,6.69,28.83l1.81,3.53.75-3.89a66.14,66.14,0,0,0,1-8.42c.06-1,.11-1.74.18-2.16l0-.22v0l-.22-.07.2.09,0,0-.22-.07.2.09-.85-.39.62.7.23-.31-.85-.39.62.7-.78-.88v1.17a1.21,1.21,0,0,0,.78-.29l-.78-.88v0l-.36,1.07.36.06v-1.13l-.36,1.07,1.14-2.47-.2-.11-.17-.07a1.24,1.24,0,0,0-.48-.09,1.38,1.38,0,0,0-.82.27,1.43,1.43,0,0,0-.56,1.1,1.24,1.24,0,0,0,.19.7l.21.29.55.49c.77.65,2.24,1.8,3.63,2.82.7.51,1.37,1,1.94,1.34.28.18.54.33.78.46l.38.17a1.78,1.78,0,0,0,.64.13,1.45,1.45,0,0,0,1.26-2.15l-1.22.6,1.36.07v-.43a30.33,30.33,0,0,0-1.42-7.44c-.7-2.38-1.39-4.26-1.4-4.28l-1.28.48-.34,1.32,8.2,2,3,.75-1.47-2.72q-2.39-4.44-4.78-8.88l-1.2.65-.16,1.36,11.61,1.36,2.23.26-.79-2.1s-.19-.49-.47-1.27c-.41-1.17-1-3-1.56-4.69-.26-.85-.49-1.68-.65-2.38a7,7,0,0,1-.24-1.49v-.06l-.8-.12.64.47.16-.35-.8-.12.64.47-.93-.68v1.15a1.25,1.25,0,0,0,.93-.47l-.93-.68v1.15c.54,0,3,.16,5.18.34l4.26.34,2.56.21-1.25-2.24a55.73,55.73,0,0,1-7.45-27.82c0-18.7,9-36.37,14.4-55.12l-2.33-1.3,1,.92-1.31-.37c-5.22,18.4-14.48,36.27-14.51,55.87a58.64,58.64,0,0,0,7.8,29.15l1.19-.67.12-1.36-4.28-.34c-2.24-.17-4.57-.34-5.39-.35a1.65,1.65,0,0,0-1,.32,1.72,1.72,0,0,0-.61,1,2.66,2.66,0,0,0-.08.71,12.91,12.91,0,0,0,.51,2.92c.88,3.34,2.58,7.85,2.59,7.87l1.28-.48.16-1.35-11.61-1.37-2.61-.3,1.24,2.31q2.4,4.44,4.79,8.87l1.2-.64.33-1.33-8.19-2.05-2.51-.63.89,2.43s.17.45.42,1.19c.38,1.11,1,2.87,1.41,4.69a21.84,21.84,0,0,1,.83,4.89V479l0,.36.16.32,1-.49H695.9a1.08,1.08,0,0,0,.1.49l1-.49h.22l-.83-1a1.3,1.3,0,0,0-.48,1h1.31l-.83-1,.81,1v-1.29a1.31,1.31,0,0,0-.81.3l.81,1v-.46l.33-.78a1.14,1.14,0,0,0-.33-.05v.83l.33-.78a9.65,9.65,0,0,1-1.35-.84c-1-.69-2.28-1.64-3.29-2.43-.51-.4-1-.75-1.25-1l-.32-.28,0,0-.39.39.43-.35,0,0-.39.39.43-.35-.93.76,1-.62-.1-.14-.93.76,1-.62-1.15.69h1.34a1.39,1.39,0,0,0-.19-.69l-1.15.69h0l.81,1.1a1.4,1.4,0,0,0,.56-1.1h-1.37l.81,1.1-.8-1.09v1.36a1.33,1.33,0,0,0,.8-.27l-.8-1.09v0l-.45,1.23a1.21,1.21,0,0,0,.45.08v-1.31l-.45,1.23.33-.9-.45.85.12.05.33-.9-.45.85h0l.7-1.18.44-1.29-.52-.09a1.56,1.56,0,0,0-1,.4,2,2,0,0,0-.59,1,10.34,10.34,0,0,0-.23,1.68,69.91,69.91,0,0,1-1.07,9.31l1.34.26L690,485a59.74,59.74,0,0,1-6.39-27.59c0-21.8,10.1-44,20.28-60.76a215.47,215.47,0,0,1,14-20.26c1.91-2.44,3.49-4.37,4.6-5.68l1.29-1.49.44-.5-1-.92-1.31-.37Z"/><path class="cls-6" d="M744.21,310.54s3.2,23-9.31,29.68c-2,1.45-9.9,4.07-8.73,8.73,1.45,6.4,4.94,5.23,9.89,4.07C749.15,350.69,764.28,322.76,744.21,310.54Z"/><path class="cls-6" d="M744.21,310.54l-1.36.18.06.44a55.76,55.76,0,0,1,.3,5.75,42,42,0,0,1-1.67,12.32c-1.33,4.17-3.58,7.8-7.29,9.78l-.08,0-.07.05a21,21,0,0,1-2,1.12,26.74,26.74,0,0,0-4.6,2.84,8.63,8.63,0,0,0-1.93,2.11,5.29,5.29,0,0,0-.87,2.85,5,5,0,0,0,.16,1.26l1.33-.33-1.34.3a8.92,8.92,0,0,0,2.27,4.64,5.37,5.37,0,0,0,3.84,1.41,25.22,25.22,0,0,0,5.43-.95l-.31-1.33.24,1.35c4.8-.88,9.44-4.58,13-9.52a30.91,30.91,0,0,0,6-17.49c0-6.73-3-13.51-10.39-18l-2.47-1.5.4,2.85,1.36-.18-.71,1.16c6.62,4.07,9,9.69,9.08,15.66a28.15,28.15,0,0,1-5.5,15.89c-3.25,4.56-7.55,7.79-11.26,8.42h-.07a23.54,23.54,0,0,1-4.81.87,2.6,2.6,0,0,1-2-.65,6.45,6.45,0,0,1-1.48-3.27h0v0l-.07-.59a2.93,2.93,0,0,1,.8-1.88,13.44,13.44,0,0,1,3.7-2.74c.73-.4,1.44-.76,2.09-1.1a15.65,15.65,0,0,0,1.68-1l-.79-1.11.64,1.2c4.57-2.44,7.16-6.81,8.6-11.36a44.37,44.37,0,0,0,1.8-13.15,51.16,51.16,0,0,0-.38-6.56l-1.35.19-.71,1.16Z"/><circle class="cls-5" cx="717.18" cy="330.42" r="4.92"/><path class="cls-4" d="M702.31,349.53c-3.21,2.62-20.08,20.08-3.5,26.48,17.17-4.66,12.52-7.86,16.3-11.64C715.21,356.51,706.57,354.47,702.31,349.53Z"/><path d="M702.31,349.53l-.87-1.06a42.26,42.26,0,0,0-6.4,7c-2.46,3.43-4.76,7.59-4.78,11.8a9.16,9.16,0,0,0,1.88,5.7,13.76,13.76,0,0,0,6.18,4.26l.42.16.43-.11a53.11,53.11,0,0,0,9.51-3.35,14.13,14.13,0,0,0,3.62-2.44,9.35,9.35,0,0,0,2.22-3.57,6.72,6.72,0,0,1,1.56-2.64l.39-.39v-.7a10.3,10.3,0,0,0-1.62-5.62,20.86,20.86,0,0,0-5.85-5.44,30.08,30.08,0,0,1-5.67-4.55l-.87-1-1,.85.87,1.06-1,.89c2.37,2.72,5.65,4.47,8.19,6.48a13.1,13.1,0,0,1,3.09,3.2,7.3,7.3,0,0,1,1.19,4.14v.11l1.37,0-1-1a8.94,8.94,0,0,0-2,3.22,6.68,6.68,0,0,1-2.42,3.57c-1.64,1.26-4.87,2.78-11.23,4.5l.35,1.32.5-1.28a11,11,0,0,1-5-3.37,6.47,6.47,0,0,1-1.33-4c0-3.16,1.94-7,4.27-10.19a40.72,40.72,0,0,1,5.91-6.55l-.86-1.05-1,.89Z"/><path class="cls-6" d="M739,514.51c-.88,3.79-4.66,17.75.58,28.52,14.55-6.11,21.24-4.37,26.19-1.16C753.81,532.26,749.15,528.19,739,514.51Z"/><path class="cls-6" d="M739,514.51l-1.33-.3a65.59,65.59,0,0,0-2.18,15.49,31.78,31.78,0,0,0,2.86,13.93l.57,1.16,1.19-.5c6.94-2.92,12-4,15.78-4A15.86,15.86,0,0,1,765,543l1.6-2.21c-11.93-9.62-16.37-13.48-26.54-27.1l-1.76-2.37-.66,2.88,1.33.3-1.1.82c10.21,13.73,15.09,18,27,27.6l.86-1.06.74-1.15a18.59,18.59,0,0,0-10.62-3.13c-4.31,0-9.68,1.17-16.84,4.18l.53,1.26,1.23-.6a29.19,29.19,0,0,1-2.58-12.73,63.72,63.72,0,0,1,2.1-14.88l-1.33-.31-1.1.82Z"/><path class="cls-5" d="M764,580.57l.88,32.59s11.35,2,16.58,0S781.16,590.46,764,580.57Z"/><path class="cls-5" d="M764,580.57l-1.36,0,.9,33.71,1.1.19a64.76,64.76,0,0,0,10.19.93,20.65,20.65,0,0,0,7.13-1,4,4,0,0,0,2.18-2.23,8.45,8.45,0,0,0,.59-3.35c0-3.92-1.69-9.25-5-14.69a43.08,43.08,0,0,0-15.05-14.78l-2.12-1.22.07,2.44,1.36,0-.68,1.18a40.17,40.17,0,0,1,14.08,13.84c3.11,5.07,4.61,10.12,4.59,13.26a5.88,5.88,0,0,1-.36,2.27c-.23.5-.44.67-.66.76a18.33,18.33,0,0,1-6.14.81,58,58,0,0,1-6.65-.44c-.92-.11-1.69-.22-2.23-.3l-.83-.14-.24,1.35,1.36,0-.87-32.59-1.37,0-.68,1.18Z"/><path class="cls-6" d="M846.34,584.64s-21-50.63-74.49-63.43-46.56-69.84-42.19-73.33c2.33-4.95,4.07-12.51,19.49-5.24s86.42,43.07,96.61,44.81S847.21,585.8,846.34,584.64Z"/><path d="M846.34,584.64l1.26-.52c0-.09-5.32-12.86-17.38-27.27s-30.91-30.48-58.05-37C754,515.51,743,506.05,736.55,495.36s-8.46-22.68-8.46-31.9a51.22,51.22,0,0,1,.94-10.25,21,21,0,0,1,.87-3.12,6,6,0,0,1,.42-.87l.15-.22,0-.05h0l.25-.2.13-.29a25.56,25.56,0,0,1,2.7-5.16,5.89,5.89,0,0,1,5.07-2.3c2.23,0,5.44.76,9.91,2.88,7.68,3.62,29.3,14.39,50.26,24.47,10.48,5,20.8,9.91,29.15,13.64,4.18,1.86,7.86,3.43,10.84,4.61a40.23,40.23,0,0,0,6.71,2.2c.06,0,.21.06.46.34a9,9,0,0,1,1.42,3.35c1.34,5,1.88,14.33,1.88,25,0,14.23-.92,31-1.92,44.19-.5,6.6-1,12.3-1.44,16.35-.22,2-.41,3.63-.57,4.71-.07.54-.14,1-.19,1.19l0,.14v0l.74.23-.68-.37-.06.14.74.23-.68-.37,1.1.59-.89-.88-.21.29,1.1.59-.89-.88,1,.94v-1.34a1.34,1.34,0,0,0-1,.4l1,.94v0l1.09-.79a1.34,1.34,0,0,0-1.09-.56v1.35l1.09-.79-1.11.8,1.26-.52-1.26.52-1.11.8a1.41,1.41,0,0,0,1.13.58,1.37,1.37,0,0,0,.93-.37,1.34,1.34,0,0,0,.37-.53l.15-.49c.14-.59.28-1.57.46-3,1.22-9.89,3.75-40.41,3.75-64.15a160.89,160.89,0,0,0-1.08-21.1,30.27,30.27,0,0,0-1.59-6.79,8.23,8.23,0,0,0-1.29-2.24A3.54,3.54,0,0,0,846,486.1a38.41,38.41,0,0,1-6.17-2.05c-10.22-4-29.4-13.1-47.66-22s-35.65-17.49-42.42-20.68c-4.69-2.21-8.23-3.14-11.08-3.15a8.7,8.7,0,0,0-7.22,3.34,27.6,27.6,0,0,0-3,5.7l1.24.58-.86-1.07a5.55,5.55,0,0,0-1.44,2.28c-1.11,2.85-2,8-2,14.37,0,9.6,2,22.05,8.85,33.31s18.46,21.27,37.32,25.77c26.4,6.31,44.79,22,56.59,36.06A126.22,126.22,0,0,1,841,577.2c1.38,2.45,2.4,4.45,3.06,5.83.34.69.58,1.23.74,1.59s.24.54.24.54l.06.15.09.13Z"/><path class="cls-4" d="M795.42,520.91c-.87.59,71.58,42.78,49.76,79.15,20.66-13.68,14-37.53,14-37.53S876,606.46,835,628c4.37,3.78,7.28,2.91,7.28,2.91l-7,7s-3.2,5.24,24.45-8.15c-7.57,6.11-8.15,10.48-8.15,10.48s2,5.82,20.08-9.9c-14.55,15.72-17.75,23.86-17.75,23.57,39.28-3.49,124.83-131.23-27.06-169.06,8.14,8.44,7,7.28,7,7.28Z"/><path d="M795.42,520.91l-.75-1.14a1.43,1.43,0,0,0-.63,1.16,1.47,1.47,0,0,0,.2.72l.31.38a11.57,11.57,0,0,0,1.15.89c3.86,2.73,17,11.29,29.1,22.8a101.41,101.41,0,0,1,16.14,19c4.27,6.79,7,13.87,7,20.83A26.28,26.28,0,0,1,844,599.36l1.93,1.84a33.75,33.75,0,0,0,12.71-14.91,39.61,39.61,0,0,0,1.82-24.13l-1.32.37-1.27.49.13.37a63.46,63.46,0,0,1,3.22,19.89A49.21,49.21,0,0,1,856,606c-4,7.66-10.62,15-21.65,20.83l-1.78.93L834.1,629c3.18,2.77,5.85,3.34,7.34,3.33a4,4,0,0,0,1.22-.15l-.39-1.3-1-1-7.1,7.1-.08.14a2.11,2.11,0,0,0-.32,1.11,1.88,1.88,0,0,0,.8,1.53,3,3,0,0,0,1.71.45c1.39,0,3.43-.48,7.16-1.85s9.07-3.68,16.85-7.45l-.59-1.23-.86-1.06c-7.79,6.27-8.61,11-8.65,11.36l0,.32.11.31a2.59,2.59,0,0,0,.83,1.13,4.05,4.05,0,0,0,2.64.84c1.59,0,3.66-.59,6.65-2.27a75.33,75.33,0,0,0,12.14-9l-.89-1-1-.93a144.38,144.38,0,0,0-14.33,17.76c-1.34,2-2.23,3.54-2.8,4.58-.28.52-.49.91-.62,1.17l-.14.26h0l.76.44-.72-.51,0,.07.76.44-.72-.51,1.06.74-.92-.9-.14.16,1.06.74-.92-.9,1,.94-.73-1.13-.23.19,1,.94-.73-1.13.74,1.15v-1.37a1.33,1.33,0,0,0-.74.22l.74,1.15v0l.91-1a1.37,1.37,0,0,0-.91-.35v1.37l.91-1-.91,1,1.34-.28a1.37,1.37,0,0,0-.43-.74l-.91,1,1.34-.28-1.32.27h1.34l0-.27-1.32.27h0l.12,1.37c6-.55,12.68-3.69,19.46-8.69,20.28-15,41.47-47.08,41.51-79.94,0-16.57-5.47-33.34-19.24-47.93s-35.71-27-68.58-35.19l-4.63-1.16,3.31,3.43c3.17,3.28,4.93,5.11,5.89,6.12.49.5.77.8.93,1l.15.17h0l.5-.45-.51.43v0l.5-.45-.51.43,1-.81-1,.74.05.07,1-.81-1,.74,1.09-.79-1.17.67.08.12,1.09-.79-1.17.67,1.18-.68-1.26.52.08.16,1.18-.68-1.26.52,1.27-.52h-1.37a1.35,1.35,0,0,0,.1.52l1.27-.52h0l-1.18-.69-.19.69h1.37l-1.18-.69,1.18.69-.54-1.26a1.35,1.35,0,0,0-.64.57l1.18.69-.54-1.26.54,1.26-.11-1.36-.43.1.54,1.26-.11-1.36.11,1.36V490.8h-.11l.11,1.36v0l.63-1.21a1.28,1.28,0,0,0-.63-.15v1.36l.63-1.21-.63,1.2.83-1.07-.2-.13-.63,1.2.83-1.07L834,492l.81-.86-.09-.07L834,492l.81-.86h0l-.83-.84L794.6,519.82l.82,1.09-.75-1.14.75,1.14.82,1.1,38.41-28.81-.82-1.09-1,1,0,0,.05,0,.06,0,.09.07.15.09a1.14,1.14,0,0,0,.64.16l.26,0a1.13,1.13,0,0,0,.51-.21l.4-.43.19-.7a1.39,1.39,0,0,0-.13-.59l-.13-.21-.1-.13-1.42-1.5-5.64-5.85-1,.95-.34,1.33c32.54,8.1,54,20.32,67.26,34.41s18.49,30.08,18.5,46.06c0,21.1-9.21,42.19-21.21,58.19a96.26,96.26,0,0,1-19.2,19.55c-6.51,4.82-12.88,7.71-18.08,8.16l-1.24.11v1.25a1.19,1.19,0,0,0,.08.46l.37.57a1.39,1.39,0,0,0,.92.35,1.34,1.34,0,0,0,.85-.3l.28-.3.18-.31a58.21,58.21,0,0,1,4.08-6.73,146.68,146.68,0,0,1,13.36-16.38l-1.9-2a73.18,73.18,0,0,1-11.69,8.7c-2.75,1.55-4.45,1.92-5.31,1.91a1.43,1.43,0,0,1-.9-.21l0,0-.48.3.53-.18,0-.12-.48.3.53-.18-1.29.45,1.36.18-.83-.11.82.13v0l-.83-.11.82.13,0-.16c.2-.77,1.39-4.42,7.62-9.46l-1.46-2.29c-7.73,3.74-13,6-16.61,7.34s-5.49,1.69-6.21,1.68l-.26,0v0h0v0l-.24.67.57-.4-.33-.27-.24.67.57-.4-.72.51h.88l-.16-.51-.72.51h.27l.52.31c0-.1.06,0,.09-.31h-.61l.52.31-1.17-.71,1,1,7-7-1.36-2.27.15.5-.12-.51h0l.15.5-.12-.51a3.51,3.51,0,0,1-.47,0c-.83,0-2.77-.26-5.55-2.66l-.9,1,.64,1.21c11.48-6,18.61-13.84,22.81-22A51.89,51.89,0,0,0,864,583.28,65.09,65.09,0,0,0,860.42,562l-2.59.86,0,.14a36.28,36.28,0,0,1,.95,8.49,34.72,34.72,0,0,1-2.69,13.69,30.86,30.86,0,0,1-11.7,13.71l.76,1.14,1.17.7a29,29,0,0,0,4.29-15.19c0-8.39-3.51-16.61-8.65-24.23-7.71-11.44-19.17-21.62-28.69-29.06-4.77-3.72-9-6.76-12.14-8.9-1.54-1.08-2.79-1.93-3.63-2.52-.42-.3-.74-.53-.93-.68l-.16-.12-.53.55.61-.46-.08-.09-.53.55.61-.46-1,.78h1.29a1.17,1.17,0,0,0-.26-.78l-1,.78h-.06l.74,1.13a1.4,1.4,0,0,0,.61-1.13h-1.35l.74,1.13,0,0,0,0Z"/><path class="cls-5" d="M798.62,508.4c9.89,7,13.38,9.31,14.55,12.81A66,66,0,0,0,796,519.75s-19.49-18.62-23-20.08c-2.62,0-17.75-9.6-17.75-9.6-7.56-3.78-14.54-30,13.39-22.4,28.8,13.67,32.88,14.84,32.88,14.84l34.34,10.76,19.78,22.12s-35.21-17.46-39.57-17.75a66.31,66.31,0,0,1,15.13,18.62C820.06,513.06,810.36,510.15,798.62,508.4Z"/><path d="M798.62,508.4l-.79,1.12c4.95,3.49,8.29,5.82,10.46,7.64s3.11,3.06,3.58,4.48l1.3-.43.3-1.34a67.91,67.91,0,0,0-14.6-1.56c-1.83,0-2.94.07-3,.08l.1,1.36,1-1s-4.89-4.66-10.21-9.51c-2.67-2.43-5.44-4.9-7.78-6.87-1.17-1-2.24-1.85-3.14-2.52a11.72,11.72,0,0,0-2.28-1.45l-.25-.1H773a5.94,5.94,0,0,1-1.22-.4,93.07,93.07,0,0,1-9.63-5.21c-1.69-1-3.23-1.95-4.36-2.65L756,488.92l-.06,0-.06,0a10.68,10.68,0,0,1-4-4.75,18,18,0,0,1-1.94-7.73,8.58,8.58,0,0,1,2.1-6.08c1.46-1.53,3.82-2.61,7.74-2.62a32.91,32.91,0,0,1,8.55,1.32l.36-1.32-.59,1.23c28.85,13.69,32.88,14.85,33.09,14.92l.38-1.31-.41,1.3,34.34,10.77.41-1.31-1,.91q9.89,11.07,19.78,22.12l1-.91.61-1.23s-8.81-4.37-18.17-8.78c-4.69-2.2-9.51-4.42-13.45-6.1-2-.85-3.72-1.56-5.14-2.08a14.34,14.34,0,0,0-3.33-.93L811.9,496l3.31,2.7a61.1,61.1,0,0,1,10.92,12c1.26,1.8,2.24,3.36,2.89,4.47.33.55.57,1,.74,1.29l.23.44,1.22-.62.38-1.32c-11.14-3.19-20.92-6.13-32.77-7.89l-1,2.47.79-1.12-.2,1.35c11.62,1.73,21.25,4.62,32.41,7.82l3,.88-1.44-2.82a67.56,67.56,0,0,0-15.49-19.05l-.86,1.06L816,499a13.29,13.29,0,0,1,2.57.77c4.72,1.72,13.89,6,21.82,9.73,4,1.89,7.63,3.66,10.31,5l4.35,2.14,1.63-2.13-19.79-22.12-.25-.28-.36-.11L801.94,481.2h0l-.18.6.19-.6h0l-.18.6.19-.6c-.09,0-4.81-1.52-32.68-14.76l-.11-.05-.12,0a35.55,35.55,0,0,0-9.27-1.42c-4.41,0-7.65,1.29-9.72,3.47a11.28,11.28,0,0,0-2.85,8,20.48,20.48,0,0,0,2.22,8.95,13.2,13.2,0,0,0,5.26,6l.61-1.22-.73,1.16s3.8,2.41,7.94,4.82c2.07,1.21,4.22,2.42,6,3.34a26.51,26.51,0,0,0,2.48,1.14,5.9,5.9,0,0,0,2,.51v-1.37l-.52,1.27a10.75,10.75,0,0,1,1.7,1.11c2.93,2.19,8.19,6.89,12.66,11,2.24,2.06,4.3,4,5.79,5.39l2.42,2.29.43.42.61,0,.72,0c.47,0,1.17,0,2,0a65.28,65.28,0,0,1,14,1.5l2.36.53-.76-2.3c-.69-2.07-2.1-3.76-4.42-5.7s-5.7-4.29-10.64-7.78l-.79,1.11-.2,1.35Z"/><path d="M661.57,352.15s33.75-8.15,37.82-7"/><path class="cls-5" d="M661.89,353.48s1.83-.45,4.69-1.11c4.3-1,10.92-2.49,17.12-3.73,3.1-.63,6.1-1.18,8.65-1.59a42.39,42.39,0,0,1,5.85-.63,3.26,3.26,0,0,1,.82.06l.75-2.63a6,6,0,0,0-1.57-.17,62.52,62.52,0,0,0-9,1.13c-11.39,2-27.93,6-27.94,6l.64,2.66Z"/></g></svg>